<?xml version="1.0" encoding="UTF-8" standalone="no"?>
<!-- Uploaded to: SVG Repo, www.svgrepo.com, Generator: SVG Repo Mixer Tools -->

<svg
   fill="#008000"
   height="800px"
   width="800px"
   version="1.1"
   id="Layer_1"
   viewBox="0 0 511.998 511.998"
   xml:space="preserve"
   sodipodi:docname="car-3.svg"
   inkscape:version="1.3 (0e150ed6c4, 2023-07-21)"
   xmlns:inkscape="http://www.inkscape.org/namespaces/inkscape"
   xmlns:sodipodi="http://sodipodi.sourceforge.net/DTD/sodipodi-0.dtd"
   xmlns="http://www.w3.org/2000/svg"
   xmlns:svg="http://www.w3.org/2000/svg"><defs
   id="defs10" /><sodipodi:namedview
   id="namedview10"
   pagecolor="#ffffff"
   bordercolor="#000000"
   borderopacity="0.25"
   inkscape:showpageshadow="2"
   inkscape:pageopacity="0.0"
   inkscape:pagecheckerboard="0"
   inkscape:deskcolor="#d1d1d1"
   inkscape:zoom="1.01625"
   inkscape:cx="400"
   inkscape:cy="400"
   inkscape:window-width="1920"
   inkscape:window-height="1009"
   inkscape:window-x="-8"
   inkscape:window-y="-8"
   inkscape:window-maximized="1"
   inkscape:current-layer="Layer_1" />&#10;<g
   id="g10">&#10;	<g
   id="g9">&#10;		<g
   id="g8">&#10;			<path
   d="M384.602,332.619c-22.274,0-40.396,18.121-40.396,40.394c0,22.274,18.122,40.396,40.396,40.396     c6.189,0,12.131-1.365,17.662-4.058c4.029-1.962,5.705-6.819,3.744-10.848c-1.962-4.029-6.814-5.703-10.848-3.744     c-3.299,1.606-6.851,2.42-10.558,2.42c-13.326,0-24.167-10.841-24.167-24.167c0-13.324,10.841-24.165,24.167-24.165     c13.324,0,24.166,10.84,24.166,24.165c0,1.943-0.23,3.873-0.683,5.738c-1.059,4.354,1.612,8.743,5.967,9.803     c4.353,1.06,8.743-1.613,9.803-5.967c0.758-3.118,1.144-6.338,1.144-9.573C424.998,350.74,406.877,332.619,384.602,332.619z"
   id="path1" />&#10;			<path
   d="M103.028,332.619c-22.275,0-40.396,18.121-40.396,40.394c0,22.274,18.122,40.396,40.396,40.396     c6.189,0,12.131-1.365,17.662-4.058c4.029-1.962,5.705-6.819,3.744-10.848c-1.962-4.029-6.815-5.703-10.848-3.744     c-3.299,1.606-6.851,2.42-10.558,2.42c-13.326,0-24.167-10.841-24.167-24.167c0-13.324,10.841-24.165,24.167-24.165     c13.324,0,24.166,10.84,24.166,24.165c0,1.943-0.23,3.873-0.683,5.738c-1.059,4.354,1.612,8.743,5.967,9.803     c4.356,1.06,8.742-1.613,9.803-5.967c0.758-3.118,1.144-6.338,1.144-9.573C143.424,350.74,125.303,332.619,103.028,332.619z"
   id="path2" />&#10;			<path
   d="M510.326,232.906l-48.699-63.564c-0.002-0.003-0.005-0.007-0.008-0.01l-27.075-35.338     c-1.535-2.005-3.916-3.179-6.441-3.179h-60.71c-12.785,0-23.187,10.4-23.187,23.184v12.91h-24.121v-27.237v-30.611h137.149     c4.483,0,8.115-3.632,8.115-8.115s-3.632-8.115-8.115-8.115H311.97c-4.483,0-8.115,3.632-8.115,8.115v30.61h-3.694     c-8.838-23.202-26.039-30.996-38.857-36.799c-6.318-2.86-11.773-5.328-13.467-8.498c-7.24-13.533-26.729-28.024-44.202-28.024     c-7.271,0-13.801,2.46-18.881,7.115c-11.732,10.745-41.238,21.615-77.007,28.365c-27.122,5.121-39.985,27.19-44.706,37.841     H23.856C10.702,131.557,0,142.257,0,155.413v3.867c0,13.155,10.702,23.856,23.856,23.856h5.52l93.71,111.655     c-6.416-1.646-13.136-2.524-20.059-2.524c-44.524,0-80.747,36.223-80.747,80.748c0,44.523,36.223,80.746,80.747,80.746     c26.475,0,50.013-12.809,64.747-32.554h83.66c4.483,0,8.115-3.632,8.115-8.115s-3.632-8.115-8.115-8.115h-74.272     c4.245-9.808,6.61-20.613,6.61-31.962c0-2.098-0.106-4.171-0.264-6.23l9.607,11.446c1.543,1.837,3.817,2.899,6.216,2.899h104.929     c0.842,8.393,2.982,16.406,6.202,23.848H278.12c-4.483,0-8.115,3.632-8.115,8.115s3.632,8.115,8.115,8.115h41.732     c14.734,19.745,38.272,32.554,64.748,32.554c36.297,0,67.069-24.076,77.205-57.096h27.006c12.785,0,23.187-10.401,23.187-23.187     v-50.43v-32.459v-34.623v-18.127C512,236.057,511.411,234.322,510.326,232.906z M110.758,109.664     c14.669-2.77,64.148-13.284,84.958-32.345c2.097-1.919,4.686-2.854,7.919-2.854c10.974,0,25.079,10.456,29.891,19.451     c4.293,8.028,12.45,11.72,21.085,15.628c10.319,4.67,20.92,9.467,27.743,22.013h-201.1     C86.238,123.233,95.439,112.556,110.758,109.664z M103.028,437.532c-35.575,0-64.518-28.942-64.518-64.517     c0-35.576,28.943-64.519,64.518-64.519c35.575,0,64.517,28.943,64.517,64.519C167.545,408.591,138.604,437.532,103.028,437.532z      M303.855,166.909h-32.938c-4.483,0-8.115,3.632-8.115,8.115s3.632,8.115,8.115,8.115h32.938v43.399v136.085v2.278H203.117     L50.566,183.139h192.577c4.483,0,8.115-3.632,8.115-8.115s-3.632-8.115-8.115-8.115H33.208c-0.015,0-0.029-0.002-0.043-0.002     h-9.309c-4.206,0-7.627-3.421-7.627-7.627v-3.867c0-4.206,3.421-7.627,7.627-7.627h44.726l225.747,0.001c0,0,0.009,0,0.016,0.001     c0.014,0,0.027-0.002,0.04-0.002h9.47V166.909z M320.085,226.537v-43.399h24.121v83.873v36.131     c-9.399,5.455-17.61,12.737-24.121,21.378V226.537z M449.027,376.453c-0.003,0.069-0.012,0.137-0.016,0.208     c-0.063,1.087-0.147,2.175-0.265,3.262c-0.003,0.029-0.008,0.058-0.011,0.088c-0.122,1.112-0.272,2.222-0.451,3.33     c-0.013,0.084-0.031,0.166-0.044,0.25c-0.169,1.02-0.362,2.038-0.58,3.052c-6.274,29.05-32.157,50.889-63.057,50.889     c-35.575,0-64.518-28.942-64.518-64.517c0-25.451,14.816-47.501,36.273-57.995c0.63-0.307,1.266-0.593,1.901-0.879     c0.414-0.186,0.822-0.384,1.241-0.563c0.99-0.42,1.989-0.812,2.993-1.18c0.61-0.224,1.232-0.422,1.851-0.628     c0.449-0.149,0.896-0.304,1.348-0.443c0.659-0.202,1.325-0.386,1.994-0.568c0.422-0.115,0.845-0.23,1.269-0.336     c0.673-0.169,1.35-0.324,2.031-0.471c0.441-0.095,0.884-0.185,1.329-0.271c0.66-0.128,1.323-0.249,1.99-0.357     c0.504-0.08,1.011-0.149,1.517-0.219c0.613-0.084,1.226-0.169,1.845-0.235c0.645-0.068,1.294-0.117,1.943-0.166     c0.495-0.038,0.986-0.087,1.482-0.113c1.165-0.063,2.335-0.1,3.512-0.1c35.575,0,64.517,28.943,64.517,64.519     C449.12,374.159,449.089,375.306,449.027,376.453z M495.77,314.935h-13.546c-2.684,0-4.869-2.185-4.869-4.869v-6.492     c0-2.684,2.185-4.869,4.869-4.869h13.546V314.935z M495.77,282.476h-13.546c-11.633,0-21.098,9.465-21.098,21.098v6.492     c0,11.633,9.465,21.098,21.098,21.098h13.546v42.315c0,3.836-3.122,6.957-6.957,6.957h-23.81c0.048-0.518,0.07-1.038,0.108-1.557     c0.048-0.659,0.106-1.315,0.137-1.978c0.063-1.297,0.098-2.593,0.098-3.888c0-44.524-36.223-80.748-80.746-80.748     c-1.267,0-2.526,0.039-3.784,0.096c-0.311,0.014-0.619,0.034-0.928,0.052c-1.044,0.06-2.084,0.138-3.12,0.238     c-0.212,0.021-0.425,0.038-0.637,0.061c-2.609,0.271-5.19,0.669-7.744,1.19c-0.036,0.008-0.071,0.015-0.107,0.023     c-1.259,0.259-2.51,0.549-3.754,0.869c-0.045,0.012-0.091,0.023-0.135,0.035c-1.326,0.343-2.648,0.709-3.957,1.121v-28.937     v-91.989v-21.025c0-3.835,3.121-6.955,6.957-6.955h56.705l14.648,19.118h-22.52c-11.633,0-21.098,9.465-21.098,21.098v55.724     c0,11.633,9.465,21.098,21.098,21.098h79.546V282.476z M495.77,247.853h-79.546c-2.684,0-4.869-2.184-4.869-4.869v-55.724     c0-2.684,2.185-4.869,4.869-4.869h34.955l44.591,58.2V247.853z"
   id="path3" />&#10;			<path
   d="M273.408,352.135c4.483,0,8.115-3.632,8.115-8.115V205.838c0-4.482-3.632-8.115-8.115-8.115s-8.115,3.632-8.115,8.115     V344.02C265.294,348.502,268.926,352.135,273.408,352.135z"
   id="path4" />&#10;			<path
   d="M234.847,197.723c-4.483,0-8.115,3.632-8.115,8.115V344.02c0,4.483,3.632,8.115,8.115,8.115s8.115-3.632,8.115-8.115     V205.838C242.962,201.357,239.328,197.723,234.847,197.723z"
   id="path5" />&#10;			<path
   d="M119.164,197.723c-4.483,0-8.115,3.632-8.115,8.115v18.753c0,4.483,3.632,8.115,8.115,8.115s8.115-3.632,8.115-8.115     v-18.753C127.279,201.357,123.645,197.723,119.164,197.723z"
   id="path6" />&#10;			<path
   d="M157.724,197.723c-4.483,0-8.115,3.632-8.115,8.115v63.679c0,4.483,3.632,8.115,8.115,8.115s8.115-3.632,8.115-8.115     v-63.679C165.839,201.357,162.207,197.723,157.724,197.723z"
   id="path7" />&#10;			<path
   d="M196.286,197.723c-4.483,0-8.115,3.632-8.115,8.115v111.443c0,4.483,3.632,8.115,8.115,8.115s8.115-3.632,8.115-8.115     V205.838C204.4,201.357,200.768,197.723,196.286,197.723z"
   id="path8" />&#10;		</g>&#10;	</g>&#10;</g>&#10;<path
   style="fill:#000000;stroke-width:0.98401;fill-opacity:0"
   d="M 315.67987,567.03567 C 314.29195,565.54736 260.78025,501.89422 196.765,425.58426 L 80.373643,286.83887 232.80675,286.34686 c 165.81427,-0.53519 154.76264,-0.11785 158.22253,-5.975 3.22397,-5.45774 1.29399,-15.07008 -3.58559,-17.85807 -1.75866,-1.00482 -37.68431,-1.35856 -177.84959,-1.75118 -172.230795,-0.48244 -175.700982,-0.5294 -178.486038,-2.41516 -7.641739,-5.17422 -7.299838,-20.31559 0.567042,-25.11189 3.241286,-1.97616 4.333626,-1.98591 222.937446,-1.98957 l 219.68019,-0.004 v 14.76015 14.76015 h -28.05873 -28.05873 l -3.67559,3.36842 c -3.46955,3.17961 -3.67558,3.70256 -3.67558,9.32917 0,5.41928 0.29209,6.25297 3.21551,9.1777 l 3.21549,3.21696 28.51882,0.28859 28.51881,0.28859 V 428.08687 569.7417 h -78.04468 -78.04468 z m 58.47321,-18.58535 c 5.98349,-3.05732 5.67472,3.41628 5.67472,-118.97534 0,-101.75515 -0.14497,-112.07357 -1.60939,-114.55264 -4.68479,-7.93072 -18.39546,-7.97427 -22.48219,-0.0714 -2.2038,4.26167 -2.26826,224.95238 -0.067,229.20924 3.33838,6.4557 10.91802,8.25595 18.48382,4.39014 z m 57.07049,1.56462 c 2.33497,-0.64848 4.66307,-2.31989 6.39606,-4.59196 l 2.72477,-3.57237 V 430.0889 c 0,-104.99125 -0.10532,-111.95444 -1.73867,-114.94309 -4.47329,-8.18511 -17.94689,-8.31758 -22.7282,-0.22347 -1.46444,2.4791 -1.60939,12.80351 -1.60939,114.63364 0,111.6533 0.005,111.91672 2.04828,115.22333 1.12655,1.82279 2.12286,3.32084 2.21402,3.32899 0.0912,0.008 1.93696,0.65292 4.10179,1.43282 4.81964,1.73634 4.17363,1.70071 8.59134,0.47382 z M 313.60536,506.8049 c 6.60434,-4.02689 6.25534,1.79171 5.96682,-99.48075 l -0.26099,-91.60861 -3.67558,-3.36822 c -3.1938,-2.92672 -4.34247,-3.36823 -8.76321,-3.36823 -6.40422,0 -11.10381,3.21665 -12.60689,8.62883 -0.66822,2.40605 -1.0215,33.93085 -1.02509,91.47425 -0.006,97.15126 -0.24068,93.47842 6.23589,97.62751 3.97015,2.5434 10.04675,2.58435 14.12905,0.0952 z m -59.91761,-74.8498 c 6.1243,-3.73389 6.09085,-3.40157 6.09085,-60.49139 0,-56.11802 0.003,-56.08106 -5.42552,-60.35139 -3.72932,-2.93348 -11.93559,-2.97464 -15.61765,-0.0783 -5.64388,4.43948 -5.5251,3.15132 -5.5251,59.92046 0,57.64824 -0.0384,57.26375 6.09085,61.00065 1.83372,1.11798 4.97742,1.98588 7.19328,1.98588 2.21587,0 5.35957,-0.8679 7.19329,-1.98588 z m -61.12129,-69.79618 c 5.93968,-3.62165 6.65935,-5.82501 7.03688,-21.54389 0.47798,-19.90198 -0.16005,-24.00897 -4.38642,-28.23534 -3.05094,-3.05093 -3.9552,-3.4006 -8.79431,-3.4006 -4.76825,0 -5.81991,0.39036 -9.06929,3.36637 l -3.67558,3.36636 -0.27417,19.51187 c -0.25597,18.21644 -0.14035,19.72788 1.74139,22.76554 3.58316,5.7842 11.61922,7.70757 17.4215,4.16969 z"
   id="path10"
   transform="scale(0.6399975)" /><path
   style="fill:#008000;fill-opacity:1;stroke-width:0.98401"
   d="M 315.67987,567.03567 C 314.29195,565.54736 260.78025,501.89422 196.765,425.58426 L 80.373643,286.83887 232.80675,286.34686 c 165.81427,-0.53519 154.76264,-0.11785 158.22253,-5.975 3.22397,-5.45774 1.29399,-15.07008 -3.58559,-17.85807 -1.75866,-1.00482 -37.68431,-1.35856 -177.84959,-1.75118 -172.230795,-0.48244 -175.700982,-0.5294 -178.486038,-2.41516 -7.641739,-5.17422 -7.299838,-20.31559 0.567042,-25.11189 3.241286,-1.97616 4.333626,-1.98591 222.937446,-1.98957 l 219.68019,-0.004 v 14.76015 14.76015 h -28.05873 -28.05873 l -3.67559,3.36842 c -3.46955,3.17961 -3.67558,3.70256 -3.67558,9.32917 0,5.41928 0.29209,6.25297 3.21551,9.1777 l 3.21549,3.21696 28.51882,0.28859 28.51881,0.28859 V 428.08687 569.7417 h -78.04468 -78.04468 z m 58.47321,-18.58535 c 5.98349,-3.05732 5.67472,3.41628 5.67472,-118.97534 0,-101.75515 -0.14497,-112.07357 -1.60939,-114.55264 -4.68479,-7.93072 -18.39546,-7.97427 -22.48219,-0.0714 -2.2038,4.26167 -2.26826,224.95238 -0.067,229.20924 3.33838,6.4557 10.91802,8.25595 18.48382,4.39014 z m 57.07049,1.56462 c 2.33497,-0.64848 4.66307,-2.31989 6.39606,-4.59196 l 2.72477,-3.57237 V 430.0889 c 0,-104.99125 -0.10532,-111.95444 -1.73867,-114.94309 -4.47329,-8.18511 -17.94689,-8.31758 -22.7282,-0.22347 -1.46444,2.4791 -1.60939,12.80351 -1.60939,114.63364 0,111.6533 0.005,111.91672 2.04828,115.22333 1.12655,1.82279 2.12286,3.32084 2.21402,3.32899 0.0912,0.008 1.93696,0.65292 4.10179,1.43282 4.81964,1.73634 4.17363,1.70071 8.59134,0.47382 z M 313.60536,506.8049 c 6.60434,-4.02689 6.25534,1.79171 5.96682,-99.48075 l -0.26099,-91.60861 -3.67558,-3.36822 c -3.1938,-2.92672 -4.34247,-3.36823 -8.76321,-3.36823 -6.40422,0 -11.10381,3.21665 -12.60689,8.62883 -0.66822,2.40605 -1.0215,33.93085 -1.02509,91.47425 -0.006,97.15126 -0.24068,93.47842 6.23589,97.62751 3.97015,2.5434 10.04675,2.58435 14.12905,0.0952 z m -59.91761,-74.8498 c 6.1243,-3.73389 6.09085,-3.40157 6.09085,-60.49139 0,-56.11802 0.003,-56.08106 -5.42552,-60.35139 -3.72932,-2.93348 -11.93559,-2.97464 -15.61765,-0.0783 -5.64388,4.43948 -5.5251,3.15132 -5.5251,59.92046 0,57.64824 -0.0384,57.26375 6.09085,61.00065 1.83372,1.11798 4.97742,1.98588 7.19328,1.98588 2.21587,0 5.35957,-0.8679 7.19329,-1.98588 z m -61.12129,-69.79618 c 5.93968,-3.62165 6.65935,-5.82501 7.03688,-21.54389 0.47798,-19.90198 -0.16005,-24.00897 -4.38642,-28.23534 -3.05094,-3.05093 -3.9552,-3.4006 -8.79431,-3.4006 -4.76825,0 -5.81991,0.39036 -9.06929,3.36637 l -3.67558,3.36636 -0.27417,19.51187 c -0.25597,18.21644 -0.14035,19.72788 1.74139,22.76554 3.58316,5.7842 11.61922,7.70757 17.4215,4.16969 z"
   id="path11"
   transform="scale(0.6399975)" /><path
   style="fill:#008000;fill-opacity:1;stroke-width:0.98401"
   d="m 140.71341,680.99799 c -37.38404,-7.89494 -66.511744,-35.77465 -76.989981,-73.69129 -1.734037,-6.2748 -2.096617,-10.38308 -2.14293,-24.28087 -0.06628,-19.88896 1.556122,-27.50116 9.227843,-43.29643 26.713966,-55.00126 94.160538,-73.92757 144.780858,-40.62723 31.1591,20.49786 48.28926,55.63808 45.07647,92.46838 -3.83485,43.96168 -36.47288,80.41731 -80.09986,89.46898 -11.46761,2.37927 -28.47329,2.36155 -39.8524,-0.0415 z m 33.12208,-36.04337 c 16.70832,-3.4512 22.42706,-8.21133 21.69657,-18.05965 -0.33105,-4.46324 -0.89368,-5.77653 -3.45529,-8.06533 -4.70356,-4.20264 -8.68989,-4.49345 -18.381,-1.34098 -6.8865,2.24015 -9.4952,2.62234 -15.14162,2.21834 -13.13707,-0.93995 -25.05543,-9.02902 -31.21137,-21.18335 -2.59649,-5.12651 -2.86554,-6.58162 -2.86554,-15.49782 0,-8.56841 0.33193,-10.53953 2.56834,-15.25215 9.35787,-19.71911 32.38525,-27.58643 51.27518,-17.51821 7.01306,3.73793 12.906,9.98775 16.35534,17.34586 2.42377,5.17035 2.61978,6.56936 2.64356,18.86853 0.0214,11.07855 0.3169,13.71935 1.77964,15.90539 2.47182,3.69408 7.96064,6.0922 12.32342,5.38422 8.62482,-1.39962 12.08937,-7.37783 12.73886,-21.98136 0.89963,-20.22788 -5.84119,-36.40228 -20.93506,-50.23307 -11.58716,-10.61754 -25.7582,-15.95876 -42.34091,-15.95876 -11.38943,0 -19.46641,1.94907 -29.40808,7.09649 -16.1551,8.3645 -28.91712,25.03589 -32.585179,42.56692 -9.479447,45.30589 29.836899,85.02188 74.943139,75.70493 z"
   id="path18"
   transform="scale(0.6399975)" /><path
   style="fill:#008000;fill-opacity:1;stroke-width:0.98401"
   d=""
   id="path19"
   transform="scale(0.6399975)" /><path
   style="fill:#008000;fill-opacity:1;stroke-width:0.98401"
   d="m 584.50185,681.84097 c -20.70614,-3.6322 -38.89944,-13.1856 -54.14641,-28.43257 -19.55152,-19.55151 -29.46443,-43.25202 -29.487,-70.49968 -0.0422,-50.88873 38.16517,-93.43653 89.54107,-99.71323 31.54989,-3.85451 65.73976,9.86371 86.72886,34.79875 26.28772,31.22981 31.39638,73.46824 13.25401,109.58424 -12.99916,25.87743 -36.6011,44.84693 -65.37351,52.5424 -8.69685,2.32606 -31.53531,3.29563 -40.51702,1.72009 z m 28.70332,-36.72949 c 9.17968,-1.75637 17.57036,-5.45179 20.32234,-8.95035 2.94311,-3.74157 2.98925,-11.94146 0.0879,-15.62988 -4.53047,-5.75957 -10.53975,-6.87112 -18.28171,-3.38162 -3.757,1.69338 -6.71864,2.1583 -14.10373,2.21402 -8.26498,0.0624 -10.04408,-0.25112 -15.35505,-2.70564 -7.59863,-3.5118 -15.17733,-11.12293 -18.7916,-18.87203 -2.40954,-5.16613 -2.7532,-7.07245 -2.74959,-15.25215 0.004,-8.33372 0.31659,-9.98643 2.88371,-15.2307 7.35028,-15.0156 23.36776,-23.55926 39.42459,-21.0289 8.23219,1.29729 13.8625,4.25539 20.2157,10.6211 8.99514,9.01285 12.53011,19.81733 10.58533,32.35363 -1.14112,7.35581 -0.65957,9.83012 2.68721,13.80755 3.42929,4.07547 8.44415,5.63435 13.37398,4.15734 7.93259,-2.37666 10.71453,-8.74923 10.68781,-24.48246 -0.0308,-18.10911 -5.61381,-31.439 -18.65625,-44.54302 -13.01193,-13.07339 -26.28948,-18.5863 -44.8371,-18.61663 -17.25296,-0.0282 -32.4892,6.30284 -44.73539,18.5887 -30.35502,30.45337 -22.08988,81.99666 16.23836,101.26612 13.14504,6.60864 26.49893,8.46009 41.00345,5.68492 z"
   id="path20"
   transform="scale(0.6399975)" /><path
   style="fill:#008000;fill-opacity:1;stroke-width:0.98401"
   d="m 727.18327,582.24325 c 0,-27.95983 -8.44739,-53.20395 -25.30316,-75.61584 -19.46119,-25.87611 -47.63826,-43.00971 -79.98589,-48.63691 -15.11859,-2.63003 -43.0925,-1.10668 -56.22647,3.06188 -1.77685,0.56394 -1.83011,-2.68887 -1.83011,-111.76098 V 236.94957 l 3.35542,-3.35542 3.35542,-3.35542 46.05773,0.25579 46.05774,0.25579 10.57623,13.77614 10.57622,13.77613 -19.89098,0.49949 c -16.57221,0.41615 -20.78305,0.8266 -25.23759,2.46002 -7.06019,2.58889 -14.95675,9.86712 -18.4721,17.02565 l -2.74956,5.5991 v 52.15252 52.15252 l 2.55285,5.41206 c 3.23211,6.85212 9.33281,12.94431 16.4743,16.45135 l 5.5731,2.73684 66.17466,0.27895 66.17466,0.27895 v 13.65294 13.65294 l -14.53941,0.33625 c -14.13949,0.327 -14.7203,0.42536 -21.11491,3.57561 -7.1524,3.52357 -12.15399,8.56355 -15.75358,15.87447 -1.88132,3.82104 -2.26716,6.43829 -2.54955,17.29454 -0.42595,16.37553 1.30294,21.79567 9.59829,30.09102 8.16584,8.16583 13.17667,9.76138 30.65582,9.76138 h 13.77512 l -0.28189,34.91451 -0.28189,34.9145 -3.21496,3.21588 -3.21496,3.21587 -20.15527,0.31853 -20.15528,0.31854 z"
   id="path21"
   transform="scale(0.6399975)" /><path
   style="fill:#008000;fill-opacity:1;stroke-width:0.98401"
   d="m 128.90529,204.06787 c 0,-1.46604 7.22149,-10.22781 12.94264,-15.70318 10.50558,-10.05428 18.13248,-13.65548 37.53121,-17.72115 54.86664,-11.49918 98.05397,-27.37351 119.99605,-44.10684 12.16126,-9.27434 12.96089,-9.62284 21.02971,-9.16535 8.10935,0.45979 16.64133,3.99984 26.36746,10.94026 7.52022,5.36632 12.65732,10.90179 18.50152,19.93627 6.63167,10.25183 12.02521,13.99012 36.61543,25.37835 17.47468,8.09289 30.42647,18.10098 36.30611,28.05443 l 1.76824,2.99339 H 284.43448 c -85.54106,0 -155.52919,-0.27278 -155.52919,-0.60618 z"
   id="path22"
   transform="scale(0.6399975)" /><path
   style="fill:#ffffff;fill-opacity:1;stroke-width:0.98401"
   d="m 500.86101,395.73596 v -109.3891 h 18.20418 18.20418 v 93.40537 93.40537 l -6.64206,4.42671 c -8.60336,5.73383 -17.68783,13.65365 -24.00118,20.92417 -2.7684,3.18811 -5.19808,5.98106 -5.39929,6.20657 -0.20121,0.2255 -0.36583,-48.81509 -0.36583,-108.97909 z"
   id="path23"
   transform="scale(0.6399975)" /><path
   style="fill:#ffffff;fill-opacity:1;stroke-width:0.98401"
   d="M 500.86101,395.38942 V 286.34686 h 18.20418 18.20418 v 93.41852 93.41851 l -7.13407,4.7271 c -3.92374,2.5999 -12.11562,9.63072 -18.20418,15.62404 l -11.07011,10.89694 z"
   id="path24"
   transform="scale(0.6399975)" /><path
   style="fill:#008000;fill-opacity:1;stroke-width:0.98401"
   d="M 500.86101,395.42321 V 286.34686 h 18.20418 18.20418 v 93.39903 93.39902 l -8.11808,5.64694 c -4.46494,3.10582 -12.65683,10.16062 -18.20418,15.67733 l -10.0861,10.03037 z"
   id="path25"
   transform="scale(0.6399975)" /><circle
   style="fill:#ffffff;fill-opacity:1;stroke-width:0.639997"
   id="path26"
   cx="102.65151"
   cy="374.07974"
   r="42.82394" /><circle
   style="fill:#ffffff;fill-opacity:1;stroke-width:0.639997"
   id="path26-8"
   cx="384.45508"
   cy="374.06082"
   r="42.82394" /></svg>
