<svg width="74" height="74" viewBox="0 0 74 74" fill="none" xmlns="http://www.w3.org/2000/svg">
<path fill-rule="evenodd" clip-rule="evenodd" d="M74 37C74 54.8802 57.4333 69.375 37 69.375C33.3354 69.3799 29.686 68.9041 26.1451 67.9598C23.4441 69.3288 17.242 71.9557 6.808 73.667C5.883 73.815 5.18 72.853 5.54537 71.9928C7.18262 68.1263 8.66263 62.974 9.10662 58.275C3.441 52.5863 0 45.14 0 37C0 19.1198 16.5667 4.625 37 4.625C57.4333 4.625 74 19.1198 74 37ZM23.125 37C23.125 38.2266 22.6377 39.403 21.7704 40.2704C20.903 41.1377 19.7266 41.625 18.5 41.625C17.2734 41.625 16.097 41.1377 15.2296 40.2704C14.3623 39.403 13.875 38.2266 13.875 37C13.875 35.7734 14.3623 34.597 15.2296 33.7296C16.097 32.8623 17.2734 32.375 18.5 32.375C19.7266 32.375 20.903 32.8623 21.7704 33.7296C22.6377 34.597 23.125 35.7734 23.125 37ZM41.625 37C41.625 38.2266 41.1377 39.403 40.2704 40.2704C39.403 41.1377 38.2266 41.625 37 41.625C35.7734 41.625 34.597 41.1377 33.7296 40.2704C32.8623 39.403 32.375 38.2266 32.375 37C32.375 35.7734 32.8623 34.597 33.7296 33.7296C34.597 32.8623 35.7734 32.375 37 32.375C38.2266 32.375 39.403 32.8623 40.2704 33.7296C41.1377 34.597 41.625 35.7734 41.625 37ZM55.5 41.625C56.7266 41.625 57.903 41.1377 58.7704 40.2704C59.6377 39.403 60.125 38.2266 60.125 37C60.125 35.7734 59.6377 34.597 58.7704 33.7296C57.903 32.8623 56.7266 32.375 55.5 32.375C54.2734 32.375 53.097 32.8623 52.2296 33.7296C51.3623 34.597 50.875 35.7734 50.875 37C50.875 38.2266 51.3623 39.403 52.2296 40.2704C53.097 41.1377 54.2734 41.625 55.5 41.625Z" fill="#7749F8"/>
</svg>
